<svg width="328" height="186" viewBox="0 0 328 186" fill="none" xmlns="http://www.w3.org/2000/svg">
<rect x="50.4655" y="6" width="10" height="10" transform="rotate(26.5229 50.4655 6)" fill="#FFCF23"/>
<rect y="46.405" width="10" height="10" transform="rotate(-19.9074 0 46.405)" fill="#FF9797"/>
<rect x="126" y="19.405" width="10" height="10" transform="rotate(-19.9074 126 19.405)" fill="#EA8933"/>
<rect x="297.351" y="22" width="10" height="10" transform="rotate(2.01077 297.351 22)" fill="#57BBA0"/>
<rect x="283.432" y="81" width="10" height="10" transform="rotate(32.901 283.432 81)" fill="#FF9797"/>
<rect x="319.432" y="117" width="10" height="10" transform="rotate(32.901 319.432 117)" fill="#EA8933"/>
<rect x="280.655" y="172" width="10" height="10" transform="rotate(3.75729 280.655 172)" fill="#57BBA0"/>
<rect x="203" y="3.405" width="10" height="10" transform="rotate(-19.9074 203 3.405)" fill="#FF9797"/>
<rect x="242" y="39.405" width="10" height="10" transform="rotate(-19.9074 242 39.405)" fill="#FFCF23"/>
<rect x="65" y="40.3562" width="10" height="10" transform="rotate(-2.04129 65 40.3562)" fill="#57BBA0"/>
<rect x="5" y="137.356" width="10" height="10" transform="rotate(-2.04129 5 137.356)" fill="#EA8933"/>
<rect x="36" y="103.451" width="10" height="10" transform="rotate(-57.6778 36 103.451)" fill="#FFCF23"/>
<rect x="34" y="180.451" width="10" height="10" transform="rotate(-57.6778 34 180.451)" fill="#FF9797"/>
</svg>
